<mxfile host="app.diagrams.net" modified="2020-04-10T17:04:21.425Z" agent="5.0 (Windows NT 10.0; Win64; x64) AppleWebKit/537.36 (KHTML, like Gecko) Chrome/81.0.4044.92 Safari/537.36" etag="AGw5NAaWDfwijBUcRyGL" version="12.9.10" type="github">
  <diagram id="C5RBs43oDa-KdzZeNtuy" name="Page-1">
    <mxGraphModel dx="1022" dy="469" grid="1" gridSize="10" guides="1" tooltips="1" connect="1" arrows="1" fold="1" page="1" pageScale="1" pageWidth="827" pageHeight="1169" math="0" shadow="0">
      <root>
        <mxCell id="WIyWlLk6GJQsqaUBKTNV-0" />
        <mxCell id="WIyWlLk6GJQsqaUBKTNV-1" parent="WIyWlLk6GJQsqaUBKTNV-0" />
        <mxCell id="LBpAUkLwmhWjywcLZa80-2" value="&lt;pre style=&quot;font-family: &amp;#34;consolas&amp;#34; ; font-size: 8.3pt&quot;&gt;Properties prop = &lt;span style=&quot;font-weight: bold&quot;&gt;new &lt;/span&gt;Properties();&lt;/pre&gt;&lt;pre style=&quot;font-family: &amp;#34;consolas&amp;#34; ; font-size: 8.3pt&quot;&gt;&lt;pre style=&quot;font-family: &amp;#34;consolas&amp;#34; ; font-size: 8.3pt&quot;&gt;prop.load(&lt;span style=&quot;font-weight: bold&quot;&gt;file&lt;/span&gt;);&lt;/pre&gt;&lt;/pre&gt;" style="rounded=1;whiteSpace=wrap;html=1;" vertex="1" parent="WIyWlLk6GJQsqaUBKTNV-1">
          <mxGeometry x="180" y="70" width="360" height="60" as="geometry" />
        </mxCell>
      </root>
    </mxGraphModel>
  </diagram>
</mxfile>
